<svg width="30" height="22" viewBox="0 0 30 22" fill="none" xmlns="http://www.w3.org/2000/svg">
<path d="M8.33301 7.00003L14.9997 11.6667L21.6663 7.00003" stroke="currentColor" stroke-width="2.5" stroke-linecap="round" stroke-linejoin="round"/>
<path d="M1.66602 17.6667V4.33332C1.66602 3.62608 1.94697 2.9478 2.44706 2.4477C2.94716 1.94761 3.62544 1.66666 4.33268 1.66666H25.666C26.3733 1.66666 27.0515 1.94761 27.5516 2.4477C28.0517 2.9478 28.3327 3.62608 28.3327 4.33332V17.6667C28.3327 18.3739 28.0517 19.0522 27.5516 19.5523C27.0515 20.0524 26.3733 20.3333 25.666 20.3333H4.33268C3.62544 20.3333 2.94716 20.0524 2.44706 19.5523C1.94697 19.0522 1.66602 18.3739 1.66602 17.6667Z" stroke="currentColor" stroke-width="2.5"/>
</svg>
