<svg width="32" height="32" viewBox="0 0 32 32" fill="none" xmlns="http://www.w3.org/2000/svg">
<path fill-rule="evenodd" clip-rule="evenodd" d="M8.5347 5.33334C8.5347 5.05044 8.64708 4.77913 8.84712 4.57909C9.04716 4.37905 9.31847 4.26667 9.60137 4.26667H22.4014C22.6843 4.26667 22.9556 4.37905 23.1556 4.57909C23.3557 4.77913 23.468 5.05044 23.468 5.33334V26.6667C23.468 26.9496 23.3557 27.2209 23.1556 27.4209C22.9556 27.621 22.6843 27.7333 22.4014 27.7333H9.60137C9.31847 27.7333 9.04716 27.621 8.84712 27.4209C8.64708 27.2209 8.5347 26.9496 8.5347 26.6667V5.33334ZM9.60137 2.13334C8.75267 2.13334 7.93874 2.47048 7.33863 3.0706C6.73851 3.67071 6.40137 4.48465 6.40137 5.33334V26.6667C6.40137 27.5154 6.73851 28.3293 7.33863 28.9294C7.93874 29.5295 8.75267 29.8667 9.60137 29.8667H22.4014C23.2501 29.8667 24.064 29.5295 24.6641 28.9294C25.2642 28.3293 25.6014 27.5154 25.6014 26.6667V5.33334C25.6014 4.48465 25.2642 3.67071 24.6641 3.0706C24.064 2.47048 23.2501 2.13334 22.4014 2.13334H9.60137ZM12.8014 24.8533C12.6033 24.8533 12.4134 24.932 12.2734 25.072C12.1334 25.2121 12.0547 25.402 12.0547 25.6C12.0547 25.798 12.1334 25.988 12.2734 26.128C12.4134 26.268 12.6033 26.3467 12.8014 26.3467H19.2014C19.3994 26.3467 19.5893 26.268 19.7293 26.128C19.8694 25.988 19.948 25.798 19.948 25.6C19.948 25.402 19.8694 25.2121 19.7293 25.072C19.5893 24.932 19.3994 24.8533 19.2014 24.8533H12.8014Z" fill="currentColor"/>
</svg>
