<svg class="animate-logo" width="678" height="136" viewBox="0 0 678 136" xmlns="http://www.w3.org/2000/svg">
	<path d="M50.918 70.6106V70.5307H50.4661H22.2672C20.3796 70.5307 18.7845 71.0507 17.6601 72.1376C16.533 73.2272 15.9406 74.8264 15.9406 76.8573C15.9406 78.7617 16.5385 80.2931 17.6658 81.3452C18.7885 82.3931 20.3797 82.9128 22.2672 82.9128H67.0058V98.2776H22.2672C14.9673 98.2776 9.61298 96.5085 6.07999 92.9974C2.54753 89.4868 0.756592 84.1558 0.756592 76.8573C0.756592 69.4212 2.54858 64.0223 6.08147 60.4785C9.61409 56.935 14.9673 55.1659 22.2672 55.1659H50.4661C52.358 55.1659 53.8659 54.6433 54.945 53.5517C56.0166 52.4676 56.6046 50.8832 56.7908 48.8811L56.7944 48.8429L56.7914 48.8046C56.65 46.9667 56.0557 45.4701 54.9694 44.4338C53.8812 43.3956 52.3566 42.8741 50.4661 42.8741H5.72754V27.419H50.4661C57.948 27.419 63.3943 29.2113 66.9727 32.7021C70.5489 36.1908 72.3383 41.4532 72.3383 48.5681C72.3383 56.0035 70.5466 61.4257 66.9677 65.0265C63.4616 68.5541 58.1649 70.4094 50.918 70.6106Z"
			fill="#1c1c1c" stroke="#1c1c1c" stroke-width="3"/>
	<path d="M118.613 98.368H118.161V98.8199V135.243H102.706V27.5093H147.806C156.731 27.5093 163.306 29.7068 167.653 34.043C172 38.3789 174.197 44.931 174.197 53.8102V72.0671C174.197 80.9463 172 87.4972 167.61 91.8327C163.218 96.1693 156.553 98.368 147.445 98.368H118.613ZM118.252 82.4609V82.9128H118.703H147.806C151.316 82.9128 154.069 81.9883 155.943 80.1265C157.817 78.2643 158.742 75.5335 158.742 72.0671V53.7198C158.742 50.2097 157.818 47.4774 155.942 45.6254C154.067 43.7745 151.313 42.8741 147.806 42.8741H118.703H118.252V43.326V82.4609Z"
			fill="#1c1c1c" stroke="#1c1c1c" stroke-width="3"/>
	<path d="M258.613 55.2563H259.065V54.8044V53.539C259.065 50.1598 258.138 47.4953 256.261 45.6788C254.387 43.8648 251.636 42.9645 248.129 42.9645H206.282V27.5093H248.129C257.054 27.5093 263.629 29.7067 267.988 34.0434C272.346 38.38 274.566 44.9329 274.61 53.8125V98.368H224.901C217.423 98.368 211.98 96.51 208.401 92.8765C204.821 89.2418 203.029 83.7511 203.029 76.315C203.029 69.2002 204.818 63.9611 208.393 60.4952C211.971 57.0267 217.418 55.2563 224.901 55.2563H257.348H258.613ZM258.613 83.0032H259.065V82.5513V71.0729V70.621H258.613H224.901C222.885 70.621 221.287 71.137 220.192 72.1939C219.095 73.2533 218.574 74.7882 218.574 76.6766C218.574 78.6867 219.065 80.2906 220.151 81.389C221.238 82.4884 222.843 83.0032 224.901 83.0032H258.613Z"
			fill="#1c1c1c" stroke="#1c1c1c" stroke-width="3"/>
	<path d="M361.014 98.8199V98.368H360.563H331.37C322.445 98.368 315.87 96.1705 311.522 91.8343C307.175 87.4984 304.978 80.9463 304.978 72.0671V53.8102C304.978 44.9298 307.153 38.378 311.489 34.0426C315.824 29.7071 322.399 27.5093 331.37 27.5093H376.47V109.214C376.47 118.093 374.272 124.551 369.885 128.795C365.495 133.043 358.829 135.153 349.717 135.153H323.597V120.059H350.078C353.585 120.059 356.339 119.159 358.214 117.308C360.09 115.456 361.014 112.724 361.014 109.214V98.8199ZM360.563 83.0032H361.014V82.5513V43.5068V43.0549H360.563H331.37C327.862 43.0549 325.109 43.9552 323.234 45.8062C321.358 47.6582 320.433 50.3905 320.433 53.9006V72.1575C320.433 75.6239 321.359 78.3547 323.233 80.2169C325.107 82.0787 327.86 83.0032 331.37 83.0032H360.563Z"
			fill="#1c1c1c" stroke="#1c1c1c" stroke-width="3"/>
	<path d="M412.072 53.894L412.075 53.8816L412.076 53.869C413.244 44.9782 416.02 38.3991 420.398 34.0434C424.767 29.6961 430.787 27.5093 438.562 27.5093H474.172V98.368H458.988V43.326V42.8741H458.536H438.562C436.559 42.8741 434.236 43.2932 432.199 44.8417C430.158 46.3937 428.463 49.0347 427.634 53.3613C427.634 53.3621 427.634 53.3629 427.634 53.3637L418.49 98.368H403.678L412.072 53.894Z"
			fill="#1c1c1c" stroke="#1c1c1c" stroke-width="3"/>
	<path d="M576.302 98.368H526.683C519.205 98.368 513.762 96.51 510.183 92.8765C506.603 89.2418 504.811 83.7511 504.811 76.315C504.811 69.2002 506.6 63.9611 510.176 60.4952C513.754 57.0267 519.2 55.2563 526.683 55.2563H559.13H560.486H560.938V54.8044V53.539C560.938 50.1598 560.01 47.4953 558.134 45.6788C556.26 43.8648 553.509 42.9645 550.001 42.9645H508.155V27.5093H550.001C558.927 27.5093 565.501 29.7069 569.837 34.0426C574.172 38.3778 576.347 44.9291 576.302 53.8079V53.8102V98.368ZM560.486 83.0032H560.938V82.5513V71.0729V70.621H560.486H526.774C524.758 70.621 523.079 71.1366 521.899 72.1805C520.71 73.2316 520.085 74.7663 520.085 76.6766C520.085 78.7077 520.678 80.3118 521.857 81.403C523.03 82.4887 524.716 83.0032 526.774 83.0032H560.486Z"
			fill="#1c1c1c" stroke="#1c1c1c" stroke-width="3"/>
	<path d="M620.589 27.0575V27.5094H621.041H650.234C659.204 27.5094 665.802 29.7072 670.148 34.043C674.495 38.3781 676.67 44.9291 676.625 53.8079V53.8102V72.0671C676.625 80.9475 674.45 87.4993 670.114 91.8348C665.779 96.1702 659.204 98.368 650.234 98.368H631.615C622.507 98.368 615.934 96.1694 611.634 91.836C607.333 87.5019 605.224 80.951 605.224 72.0671V21.8154C605.224 14.5569 606.927 9.3186 610.367 5.88946C613.807 2.46002 619.069 0.756622 626.373 0.756622H671.473V15.8502H626.283C624.394 15.8502 622.943 16.3716 621.973 17.4318C621.009 18.4844 620.589 19.9918 620.589 21.8154V27.0575ZM621.041 42.9645H620.589V43.4164V72.0671C620.589 75.5335 621.514 78.2643 623.388 80.1266C625.262 81.9884 628.015 82.9128 631.525 82.9128H650.234C653.744 82.9128 656.496 81.9884 658.37 80.1266C660.244 78.2643 661.17 75.5335 661.17 72.0671V53.8102C661.17 50.3001 660.245 47.5678 658.369 45.7159C656.494 43.8649 653.741 42.9645 650.234 42.9645H621.041Z"
			fill="#1c1c1c" stroke="#1c1c1c" stroke-width="3"/>
</svg>