<svg width="968" height="960" viewBox="0 0 968 960" fill="none" xmlns="http://www.w3.org/2000/svg">
<path d="M669.875 590.025C871.441 586.398 968 489.673 968 288.967C968 96.7254 871.441 0 669.875 0H66.384V218.841H669.875C718.154 218.841 744.708 245.441 748.329 292.594C743.501 344.584 718.154 371.184 669.875 371.184H293.297C96.5586 371.184 0 466.7 0 667.406C0 864.484 96.5586 960 293.297 960H896.788V742.368H293.297C245.017 742.368 214.843 715.768 214.843 667.406C214.843 615.416 245.017 588.816 293.297 588.816H669.875V590.025Z" fill="#0A0A0A"/>
</svg>
