<svg width="33" height="34" viewBox="0 0 33 34" fill="none" xmlns="http://www.w3.org/2000/svg">
<g id="icon/location">
<path id="Vector" d="M16.409 19.1104C15.3948 19.1104 14.4034 18.8097 13.5602 18.2462C12.7169 17.6828 12.0597 16.8819 11.6716 15.945C11.2835 15.008 11.1819 13.977 11.3798 12.9823C11.5776 11.9876 12.066 11.074 12.7831 10.3569C13.5002 9.63973 14.4139 9.15136 15.4086 8.95351C16.4033 8.75566 17.4343 8.8572 18.3712 9.24531C19.3082 9.63341 20.109 10.2906 20.6725 11.1339C21.2359 11.9771 21.5367 12.9685 21.5367 13.9827C21.535 15.3421 20.9943 16.6454 20.033 17.6067C19.0717 18.568 17.7684 19.1088 16.409 19.1104ZM16.409 10.9061C15.8005 10.9061 15.2056 11.0865 14.6997 11.4246C14.1937 11.7626 13.7994 12.2431 13.5665 12.8053C13.3337 13.3675 13.2727 13.9861 13.3914 14.5829C13.5102 15.1797 13.8032 15.7279 14.2335 16.1582C14.6637 16.5885 15.2119 16.8815 15.8087 17.0002C16.4055 17.1189 17.0241 17.058 17.5863 16.8251C18.1485 16.5922 18.629 16.1979 18.9671 15.692C19.3051 15.186 19.4856 14.5912 19.4856 13.9827C19.4848 13.167 19.1604 12.3849 18.5836 11.8081C18.0068 11.2313 17.2247 10.9069 16.409 10.9061Z" fill="#1C1C1C"/>
<path id="Vector_2" d="M16.4089 31.4173L7.75743 21.2142C7.63721 21.061 7.51825 20.9068 7.40054 20.7517C5.92272 18.805 5.12436 16.4272 5.12794 13.9831C5.12794 10.9912 6.31647 8.12185 8.43205 6.00626C10.5476 3.89067 13.417 2.70215 16.4089 2.70215C19.4008 2.70215 22.2701 3.89067 24.3857 6.00626C26.5013 8.12185 27.6898 10.9912 27.6898 13.9831C27.6934 16.4261 26.8954 18.8028 25.4183 20.7486L25.4172 20.7517C25.4172 20.7517 25.1096 21.1557 25.0634 21.2101L16.4089 31.4173ZM9.03833 19.5159C9.03833 19.5159 9.27728 19.8317 9.33163 19.8994L16.4089 28.2463L23.4954 19.8882C23.5405 19.8317 23.7805 19.5138 23.7815 19.5128C24.9887 17.9223 25.6411 15.9798 25.6387 13.9831C25.6387 11.5352 24.6663 9.18753 22.9354 7.45659C21.2044 5.72566 18.8568 4.75323 16.4089 4.75323C13.961 4.75323 11.6133 5.72566 9.88239 7.45659C8.15145 9.18753 7.17902 11.5352 7.17902 13.9831C7.17687 15.9811 7.83001 17.9247 9.03833 19.5159Z" fill="#1C1C1C"/>
</g>
</svg>
