<svg width="33" height="34" viewBox="0 0 33 34" fill="none" xmlns="http://www.w3.org/2000/svg">
<g id="icon/location">
<g id="Vector">
<mask id="path-1-inside-1_2098_2137" fill="white">
<path d="M16.5622 31.4173L7.91075 21.2142C7.79053 21.061 7.67157 20.9068 7.55386 20.7517C6.07604 18.805 5.27768 16.4272 5.28126 13.9831C5.28126 10.9912 6.46979 8.12185 8.58537 6.00626C10.701 3.89067 13.5703 2.70215 16.5622 2.70215C19.5541 2.70215 22.4234 3.89067 24.539 6.00626C26.6546 8.12185 27.8431 10.9912 27.8431 13.9831C27.8467 16.4261 27.0487 18.8028 25.5716 20.7486L25.5706 20.7517C25.5706 20.7517 25.2629 21.1557 25.2167 21.2101L16.5622 31.4173ZM9.19165 19.5159C9.19165 19.5159 9.4306 19.8317 9.48495 19.8994L16.5622 28.2463L23.6487 19.8882C23.6938 19.8317 23.9338 19.5138 23.9348 19.5128C25.142 17.9223 25.7944 15.9798 25.7921 13.9831C25.7921 11.5352 24.8196 9.18753 23.0887 7.45659C21.3578 5.72566 19.0101 4.75323 16.5622 4.75323C14.1143 4.75323 11.7666 5.72566 10.0357 7.45659C8.30477 9.18753 7.33234 11.5352 7.33234 13.9831C7.33019 15.9811 7.98333 17.9247 9.19165 19.5159Z"/>
</mask>
<path d="M16.5622 31.4173L12.7486 34.6509L16.5623 39.1486L20.3759 34.6508L16.5622 31.4173ZM7.91075 21.2142L3.97713 24.3007L4.03574 24.3754L4.09715 24.4478L7.91075 21.2142ZM7.55386 20.7517L11.5371 17.7294L11.5363 17.7284L7.55386 20.7517ZM5.28126 13.9831L10.2813 13.9904V13.9831H5.28126ZM16.5622 2.70215V-2.29785V2.70215ZM27.8431 13.9831H22.8431L22.8432 13.9904L27.8431 13.9831ZM25.5716 20.7486L21.5891 17.7253L21.0892 18.3839L20.8279 19.1683L25.5716 20.7486ZM25.5706 20.7517L29.5486 23.7807L30.0518 23.1199L30.3143 22.3319L25.5706 20.7517ZM25.2167 21.2101L21.4053 17.9739L21.4031 17.9765L25.2167 21.2101ZM9.19165 19.5159L13.1792 16.4993L13.1737 16.4921L9.19165 19.5159ZM9.48495 19.8994L5.58638 23.0301L5.62815 23.0821L5.67129 23.133L9.48495 19.8994ZM16.5622 28.2463L12.7485 31.4799L16.5623 35.9778L20.3759 31.4798L16.5622 28.2463ZM23.6487 19.8882L27.4624 23.1216L27.5085 23.0673L27.553 23.0116L23.6487 19.8882ZM23.9348 19.5128L27.4703 23.0483L27.7114 22.8073L27.9175 22.5357L23.9348 19.5128ZM25.7921 13.9831H20.7921L20.7921 13.989L25.7921 13.9831ZM16.5622 4.75323V-0.246771V4.75323ZM7.33234 13.9831L12.3323 13.9885V13.9831H7.33234ZM20.3758 28.1836L11.7243 17.9805L4.09715 24.4478L12.7486 34.6509L20.3758 28.1836ZM11.8444 18.1276C11.7409 17.9957 11.6384 17.863 11.5371 17.7294L3.57064 23.7739C3.70471 23.9506 3.84021 24.1262 3.97713 24.3007L11.8444 18.1276ZM11.5363 17.7284C10.7202 16.6533 10.2793 15.3402 10.2813 13.9904L0.281267 13.9758C0.276082 17.5142 1.4319 20.9566 3.57141 23.7749L11.5363 17.7284ZM10.2813 13.9831C10.2813 12.3173 10.943 10.7197 12.1209 9.54179L5.04984 2.47073C1.99657 5.52399 0.281262 9.66512 0.281262 13.9831H10.2813ZM12.1209 9.54179C13.2988 8.36389 14.8964 7.70215 16.5622 7.70215V-2.29785C12.2442 -2.29785 8.10311 -0.582542 5.04984 2.47073L12.1209 9.54179ZM16.5622 7.70215C18.228 7.70215 19.8256 8.36389 21.0035 9.54179L28.0746 2.47073C25.0213 -0.582543 20.8802 -2.29785 16.5622 -2.29785V7.70215ZM21.0035 9.54179C22.1814 10.7197 22.8431 12.3173 22.8431 13.9831H32.8431C32.8431 9.66512 31.1278 5.524 28.0746 2.47073L21.0035 9.54179ZM22.8432 13.9904C22.8451 15.3391 22.4046 16.6511 21.5891 17.7253L29.554 23.7718C31.6929 20.9544 32.8483 17.5131 32.8431 13.9758L22.8432 13.9904ZM20.8279 19.1683L20.8268 19.1714L30.3143 22.3319L30.3153 22.3288L20.8279 19.1683ZM25.5706 20.7517C21.5925 17.7227 21.5925 17.7226 21.5925 17.7226C21.5925 17.7226 21.5925 17.7226 21.5925 17.7226C21.5925 17.7226 21.5925 17.7226 21.5925 17.7226C21.5925 17.7226 21.5925 17.7227 21.5924 17.7227C21.5923 17.7228 21.5922 17.723 21.5919 17.7233C21.5915 17.7239 21.5908 17.7249 21.5898 17.7262C21.5878 17.7288 21.5847 17.7328 21.5808 17.738C21.5728 17.7484 21.5614 17.7635 21.5474 17.7818C21.5192 17.8187 21.4817 17.8677 21.4435 17.9176C21.304 18.0995 21.324 18.0696 21.4053 17.9739L29.0282 24.4462C29.1556 24.2962 29.3525 24.0371 29.3784 24.0033C29.4228 23.9455 29.4652 23.89 29.4962 23.8495C29.5117 23.8291 29.5246 23.8122 29.5337 23.8002C29.5383 23.7943 29.5419 23.7895 29.5444 23.7862C29.5457 23.7845 29.5467 23.7832 29.5474 23.7823C29.5477 23.7818 29.548 23.7815 29.5482 23.7812C29.5483 23.7811 29.5484 23.7809 29.5485 23.7809C29.5485 23.7808 29.5485 23.7808 29.5486 23.7807C29.5486 23.7807 29.5486 23.7807 29.5486 23.7807C29.5486 23.7807 29.5486 23.7807 25.5706 20.7517ZM21.4031 17.9765L12.7485 28.1837L20.3759 34.6508L29.0304 24.4436L21.4031 17.9765ZM9.19165 19.5159C5.20412 22.5324 5.20413 22.5325 5.20414 22.5325C5.20415 22.5325 5.20416 22.5325 5.20417 22.5325C5.20419 22.5325 5.20421 22.5326 5.20424 22.5326C5.20429 22.5327 5.20436 22.5328 5.20444 22.5329C5.20461 22.5331 5.20483 22.5334 5.20511 22.5338C5.20567 22.5345 5.20646 22.5355 5.20745 22.5368C5.20944 22.5395 5.21227 22.5432 5.21584 22.5479C5.22298 22.5573 5.2331 22.5707 5.24538 22.5869C5.26981 22.6191 5.30334 22.6633 5.33903 22.7102C5.38478 22.7703 5.50773 22.9322 5.58638 23.0301L13.3835 16.7688C13.4078 16.799 13.3841 16.7691 13.2968 16.6543C13.266 16.6138 13.2364 16.5748 13.2143 16.5457C13.2033 16.5312 13.1943 16.5194 13.1882 16.5112C13.1851 16.5072 13.1828 16.5041 13.1812 16.502C13.1805 16.501 13.1799 16.5003 13.1796 16.4998C13.1794 16.4996 13.1793 16.4994 13.1792 16.4994C13.1792 16.4993 13.1791 16.4993 13.1791 16.4993C13.1791 16.4993 13.1791 16.4993 13.1791 16.4993C13.1792 16.4993 13.1792 16.4993 13.1792 16.4993C13.1792 16.4993 13.1792 16.4993 9.19165 19.5159ZM5.67129 23.133L12.7485 31.4799L20.3759 25.0127L13.2986 16.6659L5.67129 23.133ZM20.3759 31.4798L27.4624 23.1216L19.835 16.6547L12.7485 25.0128L20.3759 31.4798ZM27.553 23.0116C27.5735 22.9861 27.5907 22.9641 27.6006 22.9514C27.6119 22.9369 27.6225 22.9233 27.6314 22.9117C27.6492 22.8887 27.6677 22.8646 27.6846 22.8424C27.7188 22.7977 27.7571 22.7472 27.7913 22.7023C27.8258 22.6567 27.8587 22.6133 27.8821 22.5825C27.8942 22.5665 27.9028 22.5551 27.9085 22.5475C27.9117 22.5434 27.9121 22.5428 27.9111 22.5441C27.9107 22.5447 27.9098 22.5458 27.9086 22.5474C27.9076 22.5488 27.9052 22.5518 27.9022 22.5558C27.9005 22.558 27.8924 22.5685 27.8819 22.5821C27.8788 22.586 27.8744 22.5917 27.8691 22.5984C27.8642 22.6047 27.856 22.6151 27.8457 22.6281C27.8411 22.6338 27.8307 22.6469 27.8248 22.6541C27.8173 22.6634 27.7995 22.6852 27.7892 22.6977C27.7747 22.7152 27.7378 22.759 27.7152 22.7852C27.6767 22.8292 27.555 22.9616 27.4703 23.0483L20.3993 15.9773C20.3146 16.064 20.193 16.1964 20.1544 16.2405C20.1318 16.2667 20.0949 16.3105 20.0803 16.328C20.0528 16.3613 20.0317 16.3877 20.0238 16.3977C20.0055 16.4207 19.9914 16.4388 19.9873 16.4441C19.9765 16.458 19.9681 16.469 19.9659 16.4718C19.9597 16.4799 19.9545 16.4867 19.9528 16.489C19.9481 16.4951 19.9432 16.5015 19.9396 16.5063C19.9319 16.5165 19.9212 16.5306 19.91 16.5454C19.8866 16.5763 19.8565 16.616 19.8253 16.6571C19.7937 16.6988 19.7635 16.7385 19.74 16.7693C19.7015 16.8196 19.7141 16.8024 19.7443 16.7647L27.553 23.0116ZM27.9175 22.5357C29.786 20.0741 30.7957 17.0676 30.7921 13.9772L20.7921 13.989C20.7931 14.8921 20.4981 15.7706 19.9521 16.4899L27.9175 22.5357ZM30.7921 13.9831C30.7921 10.2091 29.2929 6.58967 26.6242 3.92106L19.5532 10.9921C20.3464 11.7854 20.7921 12.8613 20.7921 13.9831H30.7921ZM26.6242 3.92106C23.9556 1.25244 20.3362 -0.246771 16.5622 -0.246771V9.75323C17.684 9.75323 18.7599 10.1989 19.5532 10.9921L26.6242 3.92106ZM16.5622 -0.246771C12.7882 -0.246771 9.16879 1.25244 6.50017 3.92106L13.5712 10.9921C14.3645 10.1989 15.4404 9.75323 16.5622 9.75323V-0.246771ZM6.50017 3.92106C3.83156 6.58968 2.33234 10.2091 2.33234 13.9831H12.3323C12.3323 12.8613 12.778 11.7854 13.5712 10.9921L6.50017 3.92106ZM2.33235 13.9777C2.32902 17.0696 3.33975 20.0773 5.20962 22.5397L13.1737 16.4921C12.6269 15.772 12.3314 14.8926 12.3323 13.9885L2.33235 13.9777Z" fill="#828282" mask="url(#path-1-inside-1_2098_2137)"/>
</g>
</g>
</svg>
