<svg width="34" height="34" viewBox="0 0 34 34" fill="none" xmlns="http://www.w3.org/2000/svg">
<g id="icon/location">
<path id="Vector" d="M16.7146 19.1104C15.7005 19.1104 14.7091 18.8097 13.8658 18.2462C13.0226 17.6828 12.3653 16.8819 11.9772 15.945C11.5891 15.008 11.4876 13.977 11.6854 12.9823C11.8833 11.9876 12.3717 11.074 13.0888 10.3569C13.8059 9.63973 14.7196 9.15136 15.7143 8.95351C16.7089 8.75566 17.7399 8.8572 18.6769 9.24531C19.6139 9.63341 20.4147 10.2906 20.9781 11.1339C21.5416 11.9771 21.8423 12.9685 21.8423 13.9827C21.8407 15.3421 21.2999 16.6454 20.3387 17.6067C19.3774 18.568 18.0741 19.1088 16.7146 19.1104ZM16.7146 10.9061C16.1061 10.9061 15.5113 11.0865 15.0053 11.4246C14.4994 11.7626 14.1051 12.2431 13.8722 12.8053C13.6393 13.3675 13.5784 13.9861 13.6971 14.5829C13.8158 15.1797 14.1088 15.7279 14.5391 16.1582C14.9694 16.5885 15.5176 16.8815 16.1144 17.0002C16.7112 17.1189 17.3298 17.058 17.892 16.8251C18.4542 16.5922 18.9347 16.1979 19.2727 15.692C19.6108 15.186 19.7912 14.5912 19.7912 13.9827C19.7904 13.167 19.466 12.3849 18.8892 11.8081C18.3124 11.2313 17.5303 10.9069 16.7146 10.9061Z" fill="#797878"/>
<path id="Vector_2" d="M16.7145 31.4173L8.06309 21.2142C7.94288 21.061 7.82391 20.9068 7.7062 20.7517C6.22838 18.805 5.43002 16.4272 5.43361 13.9831C5.43361 10.9912 6.62213 8.12185 8.73772 6.00626C10.8533 3.89067 13.7227 2.70215 16.7145 2.70215C19.7064 2.70215 22.5758 3.89067 24.6914 6.00626C26.807 8.12185 27.9955 10.9912 27.9955 13.9831C27.9991 16.4261 27.2011 18.8028 25.7239 20.7486L25.7229 20.7517C25.7229 20.7517 25.4152 21.1557 25.3691 21.2101L16.7145 31.4173ZM9.34399 19.5159C9.34399 19.5159 9.58294 19.8317 9.6373 19.8994L16.7145 28.2463L23.801 19.8882C23.8462 19.8317 24.0861 19.5138 24.0872 19.5128C25.2944 17.9223 25.9468 15.9798 25.9444 13.9831C25.9444 11.5352 24.972 9.18753 23.241 7.45659C21.5101 5.72566 19.1625 4.75323 16.7145 4.75323C14.2666 4.75323 11.919 5.72566 10.1881 7.45659C8.45712 9.18753 7.48469 11.5352 7.48469 13.9831C7.48253 15.9811 8.13568 17.9247 9.34399 19.5159Z" fill="#797878"/>
</g>
</svg>
