<svg width="422" height="85" viewBox="0 0 422 85" fill="none" xmlns="http://www.w3.org/2000/svg">
<path d="M31.6182 44.0438C41.0119 43.875 45.5119 39.375 45.5119 30.0375C45.5119 21.0938 41.0119 16.5938 31.6182 16.5938H3.49316V26.775H31.6182C33.8682 26.775 35.1057 28.0125 35.2744 30.2063C35.0494 32.625 33.8682 33.8625 31.6182 33.8625H14.0682C4.89942 33.8625 0.399414 38.3063 0.399414 47.6438C0.399414 56.8125 4.89942 61.2563 14.0682 61.2563H42.1932V51.1313H14.0682C11.8182 51.1313 10.4119 49.8938 10.4119 47.6438C10.4119 45.225 11.8182 43.9875 14.0682 43.9875H31.6182V44.0438Z" fill="#fff"/>
<path d="M92.1996 16.65H63.8496V84.2625H74.0309V61.3125H91.9746C103.393 61.3125 108.906 55.8 108.906 44.6625V33.3C108.906 22.1625 103.393 16.65 92.1996 16.65ZM98.7246 44.6625C98.7246 48.8813 96.4746 51.1313 92.1996 51.1313H74.0871V26.775H92.1996C96.4746 26.775 98.7246 28.9688 98.7246 33.2438V44.6625Z" fill="#fff"/>
<path d="M154.637 16.65H128.312V26.8313H154.637C158.912 26.8313 161.162 29.025 161.162 33.1313V33.9188H160.375H140.181C130.787 33.9188 126.287 38.3625 126.287 47.3063C126.287 56.6438 130.787 61.3125 140.181 61.3125H171.4V33.3C171.343 22.1625 165.831 16.65 154.637 16.65ZM161.162 51.1875H140.181C137.706 51.1875 136.525 49.95 136.525 47.5313C136.525 45.2813 137.762 44.0438 140.181 44.0438H161.162V51.1875Z" fill="#fff"/>
<path d="M189.738 33.3V44.6625C189.738 55.8 195.251 61.3125 206.445 61.3125H224.613V67.7813C224.613 72.0563 222.363 74.25 218.088 74.25H201.326V84.2063H217.863C229.282 84.2063 234.795 78.9188 234.795 67.7813V16.65H206.445C195.195 16.65 189.738 22.1625 189.738 33.3ZM224.613 51.1875H206.445C202.17 51.1875 199.92 48.9375 199.92 44.7188V33.3563C199.92 29.0813 202.17 26.8875 206.445 26.8875H224.613V51.1875Z" fill="#fff"/>
<path d="M256.393 33.3L251.105 61.3125H260.893L266.63 33.075C267.643 27.7875 270.737 26.775 273.155 26.775H285.587V61.3125H295.599V16.65H273.155C263.368 16.65 257.855 22.1625 256.393 33.3Z" fill="#fff"/>
<path d="M342.512 16.65H316.187V26.8313H342.512C346.787 26.8313 349.037 29.025 349.037 33.1313V33.9188H348.193H327.999C318.605 33.9188 314.105 38.3625 314.105 47.3063C314.105 56.6438 318.605 61.3125 327.999 61.3125H359.162V33.3C359.218 22.1625 353.705 16.65 342.512 16.65ZM349.037 51.1875H328.055C325.58 51.1875 324.174 49.95 324.174 47.5313C324.174 45.2813 325.637 44.0438 328.055 44.0438H349.037V51.1875Z" fill="#fff"/>
<path d="M404.893 16.65H386.725V13.3875C386.725 11.1938 387.737 9.95627 389.987 9.95627H418.393V1.71661e-05H390.043C380.875 1.71661e-05 376.6 4.27502 376.6 13.3875V44.6625C376.6 55.8 381.887 61.3125 393.306 61.3125H404.893C416.143 61.3125 421.6 55.8 421.6 44.6625V33.3C421.656 22.1625 416.143 16.65 404.893 16.65ZM411.418 44.6625C411.418 48.8813 409.168 51.1313 404.893 51.1313H393.25C388.975 51.1313 386.725 48.8813 386.725 44.6625V26.8313H404.893C409.168 26.8313 411.418 29.025 411.418 33.3V44.6625Z" fill="#fff"/>
</svg>
