<svg width="0" height="0" class="hidden">
  <symbol fill="none" xmlns="http://www.w3.org/2000/svg" viewBox="0 0 33 32" id="ic_arrow_hor">
    <path d="M7.5 16.1H25.5M25.5 16.1L17.4 8M25.5 16.1L17.4 24.2" stroke="currentColor" stroke-width="2"></path>
  </symbol>
  <symbol fill="none" xmlns="http://www.w3.org/2000/svg" viewBox="0 0 33 32" id="ic_arrow_ver">
    <path d="M16.4996 7.1001L16.4996 25.1001M16.4996 25.1001L24.5996 17.0001M16.4996 25.1001L8.39961 17.0001" stroke="currentColor" stroke-width="2"></path>
  </symbol>
  <symbol fill="none" xmlns="http://www.w3.org/2000/svg" viewBox="0 0 32 32" id="ic_close">
    <path d="M8.53317 25.3333L6.6665 23.4667L14.1332 16L6.6665 8.53332L8.53317 6.66666L15.9998 14.1333L23.4665 6.66666L25.3332 8.53332L17.8665 16L25.3332 23.4667L23.4665 25.3333L15.9998 17.8667L8.53317 25.3333Z" fill="currentColor"></path>
  </symbol>
  <symbol fill="none" xmlns="http://www.w3.org/2000/svg" viewBox="0 0 30 22" id="ic_email">
    <path d="M8.33301 7.00003L14.9997 11.6667L21.6663 7.00003" stroke="currentColor" stroke-width="2.5" stroke-linecap="round" stroke-linejoin="round"></path>
    <path d="M1.66602 17.6667V4.33332C1.66602 3.62608 1.94697 2.9478 2.44706 2.4477C2.94716 1.94761 3.62544 1.66666 4.33268 1.66666H25.666C26.3733 1.66666 27.0515 1.94761 27.5516 2.4477C28.0517 2.9478 28.3327 3.62608 28.3327 4.33332V17.6667C28.3327 18.3739 28.0517 19.0522 27.5516 19.5523C27.0515 20.0524 26.3733 20.3333 25.666 20.3333H4.33268C3.62544 20.3333 2.94716 20.0524 2.44706 19.5523C1.94697 19.0522 1.66602 18.3739 1.66602 17.6667Z" stroke="currentColor" stroke-width="2.5"></path>
  </symbol>
  <symbol fill="none" xmlns="http://www.w3.org/2000/svg" viewBox="0 0 32 32" id="ic_location">
    <path d="M16 18C15.0111 18 14.0444 17.7068 13.2222 17.1573C12.3999 16.6079 11.759 15.827 11.3806 14.9134C11.0022 13.9998 10.9031 12.9944 11.0961 12.0245C11.289 11.0546 11.7652 10.1637 12.4645 9.46446C13.1637 8.7652 14.0546 8.28899 15.0246 8.09607C15.9945 7.90314 16.9998 8.00216 17.9134 8.3806C18.8271 8.75904 19.6079 9.3999 20.1574 10.2221C20.7068 11.0444 21 12.0111 21 13C20.9984 14.3256 20.4711 15.5964 19.5338 16.5338C18.5964 17.4711 17.3256 17.9984 16 18ZM16 9.99999C15.4067 9.99999 14.8266 10.1759 14.3333 10.5056C13.8399 10.8352 13.4554 11.3038 13.2284 11.8519C13.0013 12.4001 12.9419 13.0033 13.0576 13.5853C13.1734 14.1672 13.4591 14.7018 13.8787 15.1213C14.2982 15.5409 14.8328 15.8266 15.4147 15.9424C15.9967 16.0581 16.5999 15.9987 17.1481 15.7716C17.6962 15.5446 18.1648 15.1601 18.4944 14.6667C18.8241 14.1734 19 13.5933 19 13C18.9992 12.2046 18.6829 11.442 18.1204 10.8796C17.558 10.3171 16.7954 10.0008 16 9.99999Z" fill="currentColor"></path>
    <path d="M16 30L7.56401 20.051C7.44679 19.9016 7.33079 19.7513 7.21601 19.6C5.77499 17.7018 4.99652 15.3832 5.00001 13C5.00001 10.0826 6.15894 7.28473 8.22184 5.22183C10.2847 3.15893 13.0826 2 16 2C18.9174 2 21.7153 3.15893 23.7782 5.22183C25.8411 7.28473 27 10.0826 27 13C27.0035 15.3821 26.2254 17.6996 24.785 19.597L24.784 19.6C24.784 19.6 24.484 19.994 24.439 20.047L16 30ZM8.81301 18.395C8.81301 18.395 9.04601 18.703 9.09901 18.769L16 26.908L22.91 18.758C22.954 18.703 23.188 18.393 23.189 18.392C24.3662 16.8411 25.0023 14.947 25 13C25 10.6131 24.0518 8.32387 22.364 6.63604C20.6761 4.94821 18.387 4 16 4C13.6131 4 11.3239 4.94821 9.63605 6.63604C7.94822 8.32387 7.00001 10.6131 7.00001 13C6.99791 14.9482 7.63479 16.8434 8.81301 18.395Z" fill="currentColor"></path>
  </symbol>
  <symbol fill="none" xmlns="http://www.w3.org/2000/svg" viewBox="0 0 32 32" id="ic_menu">
    <path d="M4 24V21.3333H28V24H4ZM4 17.3333V14.6667H28V17.3333H4ZM4 10.6667V8H28V10.6667H4Z" fill="currentColor"></path>
  </symbol>
  <symbol fill="none" xmlns="http://www.w3.org/2000/svg" viewBox="0 0 32 32" id="ic_phone">
    <path fill-rule="evenodd" clip-rule="evenodd" d="M8.5347 5.33334C8.5347 5.05044 8.64708 4.77913 8.84712 4.57909C9.04716 4.37905 9.31847 4.26667 9.60137 4.26667H22.4014C22.6843 4.26667 22.9556 4.37905 23.1556 4.57909C23.3557 4.77913 23.468 5.05044 23.468 5.33334V26.6667C23.468 26.9496 23.3557 27.2209 23.1556 27.4209C22.9556 27.621 22.6843 27.7333 22.4014 27.7333H9.60137C9.31847 27.7333 9.04716 27.621 8.84712 27.4209C8.64708 27.2209 8.5347 26.9496 8.5347 26.6667V5.33334ZM9.60137 2.13334C8.75267 2.13334 7.93874 2.47048 7.33863 3.0706C6.73851 3.67071 6.40137 4.48465 6.40137 5.33334V26.6667C6.40137 27.5154 6.73851 28.3293 7.33863 28.9294C7.93874 29.5295 8.75267 29.8667 9.60137 29.8667H22.4014C23.2501 29.8667 24.064 29.5295 24.6641 28.9294C25.2642 28.3293 25.6014 27.5154 25.6014 26.6667V5.33334C25.6014 4.48465 25.2642 3.67071 24.6641 3.0706C24.064 2.47048 23.2501 2.13334 22.4014 2.13334H9.60137ZM12.8014 24.8533C12.6033 24.8533 12.4134 24.932 12.2734 25.072C12.1334 25.2121 12.0547 25.402 12.0547 25.6C12.0547 25.798 12.1334 25.988 12.2734 26.128C12.4134 26.268 12.6033 26.3467 12.8014 26.3467H19.2014C19.3994 26.3467 19.5893 26.268 19.7293 26.128C19.8694 25.988 19.948 25.798 19.948 25.6C19.948 25.402 19.8694 25.2121 19.7293 25.072C19.5893 24.932 19.3994 24.8533 19.2014 24.8533H12.8014Z" fill="currentColor"></path>
  </symbol>
</svg>